<?xml version="1.0" standalone="no"?>
<!DOCTYPE svg PUBLIC "-//W3C//DTD SVG 1.1//EN" "http://www.w3.org/Graphics/SVG/1.1/DTD/svg11.dtd">
<svg xmlns="http://www.w3.org/2000/svg"  width="4961" height="3508" viewBox="0 0 4961 3508" version="1.1" style="fill-rule:evenodd;clip-rule:evenodd;stroke-linecap:round;stroke-linejoin:round;stroke-miterlimit:1.5;">
    <path d="M898.648,464.853C897.838,510.577 901.491,2993.67 898.528,3122.44C915.877,3121.71 1153.85,3123.09 1177.64,3122.46C1178.18,3109.18 1185.51,465.839 1185.51,465.839C1185.51,465.839 923.595,464.442 898.648,464.853Z" style="fill:rgb(38,162,72);stroke:rgb(38,162,72);stroke-width:1px;"/>
    <path d="M3317.3,467.175C3344.27,530.461 3991.85,1671.66 4043.39,1762.1C3999.25,1833.33 3311.56,3064.29 3281.93,3118.69C3317.18,3119.4 3528.77,3117.24 3582.96,3119.59C3830.71,2663.25 4121.82,2112.22 4337.78,1759.95C4233.83,1564.48 3654.76,586.876 3586.3,467.871C3496.32,467.114 3358.94,465.192 3317.3,467.175Z" style="fill:rgb(38,162,72);stroke:rgb(38,162,72);stroke-width:1px;"/>
    <g transform="matrix(1,0,0,1,-0.0370515,-9.83208)">
        <path d="M1952.45,766.368C1961.22,775.102 1972.19,789.903 1973.5,811.023C1977.38,873.476 1951.05,980.203 1983.91,1046.46C2007.98,1094.99 2049.44,1144.94 2091.85,1164.53C2134.9,1184.42 2181.01,1171.88 2190.8,1171.06C2247.5,1166.28 2369.53,1084.41 2407.14,1234.12C2410.41,1247.16 2467.98,1238.66 2477.34,1238.68C2482.95,1238.7 2479.11,1219.33 2479.56,1197.28C2479.63,1193.99 2476.37,1082.57 2429.14,1006.1C2400.79,960.197 2347.58,932.773 2295.04,932.36C2275.11,932.204 2207.14,945.234 2168.42,934.797C2108.29,918.589 2073.99,874.022 2054.46,853.654C2004.8,801.858 1982.49,751.094 1952.45,766.368ZM2025.8,911.786C2022.83,917.304 2034.08,957.399 2050.39,983.133C2112,1080.3 2159.17,1066.96 2237.27,1051.77C2256.86,1047.96 2287.03,1038.23 2312.49,1042.31C2339.79,1046.69 2363.17,1067.74 2364.88,1068.78C2364.28,1066.99 2337.15,1024.23 2318.32,1019.14C2279.72,1008.71 2255.25,1025.34 2228.08,1029.63C2191.48,1035.41 2156.05,1038.68 2116.21,1021.08C2075.61,1003.13 2024.55,908.879 2025.8,911.786Z" style="fill:rgb(38,162,72);stroke:rgb(38,162,72);stroke-width:1px;"/>
    </g>
    <g transform="matrix(1,0,0,1,-0.0370515,-9.83208)">
        <path d="M2552.4,862.975C2548.64,863.657 2560.09,871.616 2562.49,887.144C2564.77,901.839 2557.95,924.015 2556.41,929.094C2550.49,948.772 2539.18,968.487 2533.54,989.724C2529.64,1004.38 2511.42,1110.61 2556.7,1160.76C2564.61,1169.53 2585.51,1198.86 2618.67,1208.23C2663.47,1220.89 2723.98,1213.72 2742.19,1226.26C2748.69,1230.74 2758,1243.78 2762.1,1258.39C2767.24,1276.72 2766.84,1297.4 2772.77,1305.3C2794.21,1333.86 2818.71,1320.21 2854.46,1302.34C2856.28,1301.43 2879.54,1256.2 2882.38,1204.14C2883.64,1180.91 2881.72,1126.84 2858.81,1095.42C2835.27,1063.13 2790.61,1053.78 2783.14,1052.61C2757.92,1048.63 2726.3,1049.74 2700.55,1036.2C2673.67,1022.07 2655.26,997.023 2635.78,976.518C2587.39,925.58 2576.97,858.515 2552.4,862.975ZM2584.66,997.231C2584.16,1004.49 2575.44,1069.14 2638.18,1116.71C2654.26,1128.9 2678.53,1137.86 2702.04,1141.83C2734.98,1147.38 2769.3,1138.61 2792.91,1161.78C2810.89,1179.42 2817.29,1197.11 2818.6,1200.59C2820.4,1159.03 2789.29,1134.12 2788.54,1133.67C2769.76,1122.4 2752.68,1127.06 2731.91,1127.51C2710.92,1127.98 2687.12,1120.34 2657.93,1099.75C2611.06,1066.69 2584.87,1003.46 2584.66,997.231Z" style="fill:rgb(38,162,72);stroke:rgb(38,162,72);stroke-width:1px;"/>
    </g>
    <g transform="matrix(1,0,0,1,-0.0370515,-9.83208)">
        <path d="M1942.29,1390.63C1941.64,1455.2 1941.6,2371.83 1941.25,2450.14C1916.96,2450.57 1877.23,2449.6 1854.63,2449.32C1856.57,2426.16 1861.86,1665.28 1861.75,1599.6C1837.81,1615.37 1730.91,1692.85 1724.79,1698.07C1724.79,2178.16 1722.08,2449.95 1722.08,2449.95C1722.08,2449.95 1631.74,2451.14 1606.07,2451.55C1606.05,2412.89 1617.7,1758.54 1617.7,1758.54C1617.7,1758.54 1578.62,1784.22 1500.93,1833.67C1501.93,1865.41 1499.62,2412.49 1498.85,2452.2C1471.91,2452 1436.19,2453.02 1436.19,2453.02L1432.57,1743.05C1432.57,1743.05 1936.94,1393.64 1942.29,1390.63ZM1948.72,2476.59C1937.82,2476.6 1761.84,2477.4 1613.72,2478.31C1522.73,2478.87 1442.25,2479.46 1417.03,2479.94C1416.55,2456.66 1416.13,2428.39 1415.75,2396.66C1412.98,2161.22 1412.89,1734.79 1412.89,1734.79C1412.89,1734.79 1922.34,1378.14 1941.99,1365.04M1941.99,1365.04C1994.05,1328.21 2029.7,1303.03 2034.44,1299.78C2053.7,1315.47 2301.15,1524.9 2327.56,1547.69C2328,1518.65 2338.49,1251.03 2338.65,1233.99C2360.33,1234.57 2518.37,1235.07 2563.61,1235.52C2586.64,1496.18 2590.93,1554.36 2600.58,1769.3C2608.43,1774.8 2655.37,1820.77 2688.34,1853.58C2688.12,1792.23 2699.78,1339.04 2700.52,1302.17C2741.8,1301.99 2953.18,1305.06 2953.18,1305.06C2953.18,1305.06 2990.02,2058.26 2992.7,2094.12C3029.14,2122.66 3387.14,2443.41 3417.66,2468.72C3374.56,2468.83 2049.44,2476.04 1948.72,2476.59" style="stroke:black;stroke-width:1px;"/>
    </g>
</svg>